<svg width="96" height="96" viewBox="0 0 96 96" fill="none" xmlns="http://www.w3.org/2000/svg">
  <rect width="96" height="96" rx="18" fill="#0A2342"/>
  <path d="M48 15L76 28V47C76 65 64.4 78.3 48 84C31.6 78.3 20 65 20 47V28L48 15Z" fill="#EEF3F8"/>
  <path d="M48 24L66 32.5V47C66 60.2 58.2 69.2 48 73.6C37.8 69.2 30 60.2 30 47V32.5L48 24Z" fill="#163B63"/>
  <path d="M48 32L58.7 61H52.7L50.8 55.3H39.8L37.9 61H31.8L42.6 32H48ZM45.3 39.1L41.5 50.2H49.1L45.3 39.1Z" fill="white"/>
  <path d="M61 39H67V61H61V39Z" fill="#C9D6E3"/>
</svg>
